<?xml version="1.0" standalone="no"?>
<!DOCTYPE svg PUBLIC "-//W3C//DTD SVG 20010904//EN"
 "http://www.w3.org/TR/2001/REC-SVG-20010904/DTD/svg10.dtd">
<svg version="1.0" xmlns="http://www.w3.org/2000/svg"
 width="1200.000000pt" height="1200.000000pt" viewBox="0 0 1200.000000 1200.000000"
 preserveAspectRatio="xMidYMid meet">
<metadata>
Created by potrace 1.11, written by Peter Selinger 2001-2013
</metadata>
<g transform="translate(0.000000,1200.000000) scale(0.100000,-0.100000)"
fill="#000000" stroke="none">
<path d="M5775 8893 c-255 -31 -491 -98 -697 -197 -442 -213 -806 -572 -1018
-1004 l-54 -112 -1698 -2 -1698 -3 186 -232 186 -233 1444 0 1444 0 -6 -42
c-3 -24 -7 -53 -10 -65 l-4 -23 -1021 -2 -1021 -3 186 -232 187 -233 835 0
c659 0 835 -3 839 -12 2 -7 6 -37 10 -65 l6 -53 -431 -2 -430 -3 186 -232 186
-233 312 0 311 0 58 -115 c77 -155 154 -277 247 -394 85 -106 271 -291 365
-362 285 -218 606 -358 970 -425 122 -22 453 -30 598 -14 719 77 1361 529
1690 1188 l61 122 312 0 312 0 186 233 186 232 -431 3 -430 2 7 58 c3 31 8 60
11 65 2 4 379 7 838 7 l834 0 186 233 187 232 -1023 5 -1024 5 -7 40 c-4 22
-7 50 -7 63 l-1 22 1444 0 1444 0 186 233 186 232 -1699 3 -1699 2 -50 103
c-165 346 -431 650 -757 864 -122 81 -162 103 -290 161 -296 134 -574 193
-905 190 -102 0 -198 -3 -215 -5z m341 -473 c308 -24 569 -114 820 -281 123
-83 307 -254 394 -369 389 -512 459 -1199 178 -1765 -244 -491 -696 -827
-1238 -921 -151 -26 -405 -24 -564 5 -774 139 -1349 797 -1382 1581 -14 307
38 547 176 825 257 518 766 868 1343 924 120 12 132 12 273 1z"/>
<path d="M5760 6705 l0 -505 65 0 65 0 0 225 0 225 160 0 160 0 0 55 0 55
-160 0 -160 0 0 170 0 170 175 0 175 0 0 55 0 55 -240 0 -240 0 0 -505z"/>
<path d="M3120 3595 l0 -335 40 0 40 0 0 150 0 150 110 0 110 0 0 35 0 34
-107 3 -108 3 0 110 0 110 118 3 117 3 0 34 0 35 -160 0 -160 0 0 -335z"/>
<path d="M3630 3895 l0 -35 70 0 70 0 0 -274 c0 -339 -9 -319 139 -324 l101
-4 0 36 0 35 -77 3 -78 3 -3 298 -2 297 -110 0 -110 0 0 -35z"/>
<path d="M4860 3885 l0 -45 45 0 45 0 0 45 0 45 -45 0 -45 0 0 -45z"/>
<path d="M6920 3596 l0 -336 40 0 40 0 0 129 0 128 83 5 c149 8 177 41 177
208 0 170 -25 192 -217 198 l-123 4 0 -336z m240 244 c17 -17 20 -33 20 -115
0 -123 -9 -135 -110 -135 l-70 0 0 135 0 135 70 0 c57 0 74 -4 90 -20z"/>
<path d="M4251 3503 c43 -130 84 -240 90 -244 8 -5 6 -18 -7 -45 -16 -34 -24
-39 -56 -42 -36 -3 -38 -5 -38 -39 l0 -35 56 4 c91 8 94 13 185 336 43 155 79
286 79 292 0 5 -17 10 -38 10 l-37 0 -39 -152 c-22 -84 -46 -175 -54 -203
l-14 -50 -49 165 c-27 91 -54 182 -59 203 -10 36 -12 37 -55 37 l-43 0 79
-237z"/>
<path d="M4730 3705 l0 -35 70 0 70 0 0 -205 0 -205 110 0 110 0 0 35 0 35
-70 0 -70 0 0 205 0 205 -110 0 -110 0 0 -35z"/>
<path d="M5285 3500 l0 -240 37 0 37 0 3 191 c3 221 3 219 98 219 89 0 90 -2
90 -223 l0 -187 40 0 40 0 0 193 c0 206 -4 225 -52 260 -33 25 -153 36 -188
17 -18 -9 -25 -10 -28 -1 -2 6 -20 11 -40 11 l-37 0 0 -240z"/>
<path d="M5882 3720 c-52 -23 -72 -64 -72 -145 0 -60 17 -112 43 -134 13 -10
17 -30 17 -77 l0 -64 98 0 c116 0 142 -12 142 -65 0 -55 -25 -65 -162 -65
l-118 0 0 -35 0 -35 123 1 c67 0 137 5 156 12 66 23 98 107 68 179 -23 54 -56
71 -148 76 -69 4 -79 7 -79 23 0 16 8 19 58 19 70 0 119 24 144 71 14 27 18
56 18 146 l0 113 -122 0 c-100 0 -131 -4 -166 -20z m208 -129 c0 -97 -13 -111
-102 -111 -78 0 -98 19 -98 95 0 81 18 95 120 95 l80 0 0 -79z"/>
<path d="M7525 3722 c-63 -30 -70 -53 -70 -226 0 -175 7 -194 81 -222 54 -21
170 -15 209 10 54 35 60 58 60 216 0 158 -6 181 -61 217 -40 26 -168 29 -219
5z m180 -77 c24 -23 25 -30 25 -140 0 -111 -8 -150 -34 -167 -6 -4 -37 -8 -68
-8 -92 0 -98 11 -98 170 0 158 7 170 95 170 46 0 60 -4 80 -25z"/>
<path d="M8020 3705 c0 -33 2 -35 35 -35 l35 0 0 -170 0 -170 -35 0 c-33 0
-35 -2 -35 -35 l0 -35 125 0 125 0 0 35 0 35 -50 0 -50 0 0 154 c0 183 1 186
107 186 l63 0 0 35 0 35 -59 0 c-33 0 -72 -5 -88 -11 -19 -7 -29 -7 -31 0 -2
7 -33 11 -73 11 l-69 0 0 -35z"/>
<path d="M8602 3720 c-52 -23 -72 -64 -72 -145 0 -60 17 -112 43 -134 13 -10
17 -30 17 -77 l0 -64 98 0 c116 0 142 -12 142 -65 0 -55 -25 -65 -162 -65
l-118 0 0 -35 0 -35 123 1 c67 0 137 5 156 12 66 23 98 107 68 179 -23 54 -56
71 -148 76 -69 4 -79 7 -79 23 0 16 8 19 58 19 70 0 119 24 144 71 14 27 18
56 18 146 l0 113 -122 0 c-100 0 -131 -4 -166 -20z m208 -129 c0 -97 -13 -111
-102 -111 -78 0 -98 19 -98 95 0 81 18 95 120 95 l80 0 0 -79z"/>
</g>
</svg>
